<svg width="32" height="32" viewBox="0 0 32 32" fill="none" xmlns="http://www.w3.org/2000/svg">
<rect width="32" height="32" fill="black"/>
<rect x="7" y="7" width="2" height="2" rx="1" fill="#FFB770"/>
<rect x="7" y="5" width="2" height="2" rx="1" fill="#FFFFFE"/>
<rect x="7" y="17" width="2" height="2" rx="1" fill="#FF8528"/>
<rect x="7" y="19" width="2" height="2" rx="1" fill="#FF3803"/>
<rect x="9" y="19" width="2" height="2" rx="1" fill="#FF8528"/>
<rect x="7" y="21" width="2" height="2" rx="1" fill="#FF8528"/>
<rect x="9" y="21" width="2" height="2" rx="1" fill="#FF3803"/>
<rect x="7" y="23" width="2" height="2" rx="1" fill="#FF3803"/>
<rect x="9" y="23" width="2" height="2" rx="1" fill="#FF3803"/>
<rect x="7" y="25" width="2" height="2" rx="1" fill="#FF3803"/>
<rect x="9" y="25" width="2" height="2" rx="1" fill="#FF3803"/>
<rect x="7" y="15" width="2" height="2" rx="1" fill="#FFB770"/>
<rect x="9" y="15" width="2" height="2" rx="1" fill="#FF8528"/>
<rect x="25" y="15" width="2" height="2" rx="1" fill="#FFB770"/>
<rect x="23" y="15" width="2" height="2" rx="1" fill="#FF8528"/>
<rect x="7" y="13" width="2" height="2" rx="1" fill="#FF8528"/>
<rect x="9" y="13" width="2" height="2" rx="1" fill="#FFB770"/>
<rect x="25" y="13" width="2" height="2" rx="1" fill="#FF8528"/>
<rect x="23" y="13" width="2" height="2" rx="1" fill="#FFB770"/>
<rect x="7" y="11" width="2" height="2" rx="1" fill="#FFB770"/>
<rect x="9" y="11" width="2" height="2" rx="1" fill="#FFFFFE"/>
<rect x="25" y="11" width="2" height="2" rx="1" fill="#FFB770"/>
<rect x="23" y="11" width="2" height="2" rx="1" fill="#FFFFFE"/>
<rect x="7" y="9" width="2" height="2" rx="1" fill="#FFFFFE"/>
<rect x="9" y="9" width="2" height="2" rx="1" fill="#FFB770"/>
<rect x="25" y="9" width="2" height="2" rx="1" fill="#FFFFFE"/>
<rect x="23" y="9" width="2" height="2" rx="1" fill="#FFB770"/>
<rect x="9" y="7" width="2" height="2" rx="1" fill="#FFFFFE"/>
<rect x="9" y="5" width="2" height="2" rx="1" fill="#FFFFFE"/>
<rect x="9" y="17" width="2" height="2" rx="1" fill="#FF8528"/>
<rect x="11" y="7" width="2" height="2" rx="1" fill="#FFFFFE"/>
<rect x="11" y="5" width="2" height="2" rx="1" fill="#FFFFFE"/>
<rect x="11" y="17" width="2" height="2" rx="1" fill="#FF8528"/>
<rect x="11" y="19" width="2" height="2" rx="1" fill="#FF3803"/>
<rect x="13" y="19" width="2" height="2" rx="1" fill="#FF8528"/>
<rect x="15" y="19" width="2" height="2" rx="1" fill="#FF3803"/>
<rect x="17" y="19" width="2" height="2" rx="1" fill="#FF8528"/>
<rect x="19" y="19" width="2" height="2" rx="1" fill="#FF3803"/>
<rect x="21" y="19" width="2" height="2" rx="1" fill="#FF8528"/>
<rect x="13" y="7" width="2" height="2" rx="1" fill="#FFFFFE"/>
<rect x="13" y="5" width="2" height="2" rx="1" fill="#FFFFFE"/>
<rect x="13" y="17" width="2" height="2" rx="1" fill="#FF8528"/>
<rect x="15" y="7" width="2" height="2" rx="1" fill="#FFFFFE"/>
<rect x="15" y="5" width="2" height="2" rx="1" fill="#FFFFFE"/>
<rect x="15" y="17" width="2" height="2" rx="1" fill="#FF8528"/>
<rect x="17" y="7" width="2" height="2" rx="1" fill="#FFFFFE"/>
<rect x="17" y="5" width="2" height="2" rx="1" fill="#FFFFFE"/>
<rect x="17" y="17" width="2" height="2" rx="1" fill="#FF8528"/>
<rect x="19" y="7" width="2" height="2" rx="1" fill="#FFFFFE"/>
<rect x="19" y="5" width="2" height="2" rx="1" fill="#FFFFFE"/>
<rect x="19" y="17" width="2" height="2" rx="1" fill="#FF8528"/>
<rect x="21" y="7" width="2" height="2" rx="1" fill="#FFFFFE"/>
<rect x="21" y="5" width="2" height="2" rx="1" fill="#FFFFFE"/>
<rect x="21" y="17" width="2" height="2" rx="1" fill="#FF8528"/>
<rect x="23" y="7" width="2" height="2" rx="1" fill="#FFB770"/>
<rect x="23" y="17" width="2" height="2" rx="1" fill="#FF8528"/>
<rect x="25" y="17" width="2" height="2" rx="1" fill="#FF8528"/>
</svg>
